<svg xmlns="http://www.w3.org/2000/svg" version="1.1" xmlns:xlink="http://www.w3.org/1999/xlink" xmlns:svgjs="http://svgjs.dev/svgjs" width="128" height="128" viewBox="0 0 128 128"><g transform="matrix(0.8046875,0,0,0.8046875,12.406799554127602,11.122946068548409)"><svg viewBox="0 0 151 155" data-background-color="#c8c8c8" preserveAspectRatio="xMidYMid meet" height="131" width="128" xmlns="http://www.w3.org/2000/svg" xmlns:xlink="http://www.w3.org/1999/xlink"><g id="tight-bounds" transform="matrix(1,0,0,1,0.1366336633663252,0.24999999999997158)"><svg viewBox="0 0 150.72673267326735 154.5" height="154.5" width="150.72673267326735"><g><svg viewBox="0 0 150.72673267326735 154.5" height="154.5" width="150.72673267326735"><g><svg viewBox="0 0 150.72673267326735 154.5" height="154.5" width="150.72673267326735"><g id="textblocktransform"><svg viewBox="0 0 150.72673267326735 154.5" height="154.5" width="150.72673267326735" id="textblock"><g><svg viewBox="0 0 150.72673267326735 154.5" height="154.5" width="150.72673267326735"><g transform="matrix(1,0,0,1,0,0)"><svg width="150.72673267326735" viewBox="3.35 -30.78 36.949999999999996 37.879999999999995" height="154.5" data-palette-color="#000000"><path d="M25.93 5.65L25.93 7.1Q20.83 7.1 16.68 5.73 12.53 4.35 9.55 1.81 6.58-0.73 4.96-4.21 3.35-7.7 3.35-11.9L3.35-11.9Q3.35-15.88 4.76-19.3 6.18-22.73 8.78-25.3 11.38-27.88 14.95-29.33 18.53-30.78 22.83-30.78L22.83-30.78Q26.83-30.78 30.05-29.54 33.27-28.3 35.56-26.11 37.85-23.93 39.08-21.04 40.3-18.15 40.3-14.88L40.3-14.88Q40.3-12.2 39.53-9.94 38.75-7.68 37.43-6 36.1-4.33 34.41-3.4 32.73-2.48 30.9-2.48L30.9-2.48Q29.05-2.48 27.95-3.46 26.85-4.45 26.85-6.28L26.85-6.28 26.85-6.98Q26.03-5.18 24.46-3.83 22.9-2.48 20.45-2.48L20.45-2.48Q18.53-2.48 16.79-3.43 15.05-4.38 13.95-6.21 12.85-8.05 12.85-10.68L12.85-10.68Q12.85-12.95 13.69-14.93 14.53-16.9 15.98-18.38 17.43-19.85 19.25-20.68 21.08-21.5 23.03-21.5L23.03-21.5Q25.65-21.5 27.21-19.88 28.78-18.25 28.78-14.95L28.78-14.95 28.78-6.28Q28.78-4.98 29.26-4.3 29.75-3.63 30.88-3.63L30.88-3.63Q32.58-3.63 34.29-5.06 36-6.5 37.15-9.05 38.3-11.6 38.3-14.98L38.3-14.98Q38.3-19.13 36.38-22.34 34.45-25.55 31-27.39 27.55-29.23 22.93-29.23L22.93-29.23Q18.88-29.23 15.64-27.83 12.4-26.43 10.1-23.98 7.8-21.53 6.58-18.35 5.35-15.18 5.35-11.65L5.35-11.65Q5.35-6.48 7.91-2.58 10.48 1.33 15.1 3.49 19.73 5.65 25.93 5.65L25.93 5.65ZM20.5-3.98L20.5-3.98Q22.73-3.98 24.21-5.4 25.7-6.83 26.9-9.3L26.9-9.3 26.9-15.03Q26.9-17.6 26.01-18.79 25.13-19.98 23.28-19.98L23.28-19.98Q21.4-19.98 19.46-18.85 17.53-17.73 16.23-15.61 14.93-13.5 14.93-10.58L14.93-10.58Q14.93-7.48 16.49-5.73 18.05-3.98 20.5-3.98Z" opacity="1" transform="matrix(1,0,0,1,0,0)" fill="#ffffff" class="undefined-text-0" data-fill-palette-color="primary" id="text-0"></path></svg></g></svg></g></svg></g></svg></g><g></g></svg></g><defs></defs></svg><rect width="150.72673267326735" height="154.5" fill="none" stroke="none" visibility="hidden"></rect></g></svg></g></svg>